<svg width="11" height="12" viewBox="0 0 11 12" fill="none" xmlns="http://www.w3.org/2000/svg">
<path fill-rule="evenodd" clip-rule="evenodd" d="M8.84481 8.27404L10.8275 10.2509C10.9379 10.3604 11 10.5094 11 10.6649C11 10.8204 10.9379 10.9695 10.8275 11.079C10.718 11.1894 10.569 11.2515 10.4135 11.2515C10.258 11.2515 10.1089 11.1894 9.99944 11.079L8.02258 9.09628C7.2076 9.73598 6.20121 10.0831 5.16516 10.0818C2.58867 10.0818 0.5 7.99313 0.5 5.41663C0.5 2.84013 2.58867 0.751465 5.16516 0.751465C7.74166 0.751465 9.83033 2.84013 9.83033 5.41663C9.83162 6.45268 9.48451 7.45907 8.84481 8.27404ZM5.16516 1.91776C3.23279 1.91776 1.66629 3.48425 1.66629 5.41663C1.66629 7.349 3.23279 8.9155 5.16516 8.9155C7.09754 8.9155 8.66404 7.349 8.66404 5.41663C8.66404 3.48425 7.09754 1.91776 5.16516 1.91776Z" fill="#808080"/>
</svg>
